<svg width="66" height="66" viewBox="0 0 66 66" fill="none" xmlns="http://www.w3.org/2000/svg">
<path d="M66 33C66 51.2254 51.2254 66 33 66C14.7746 66 0 51.2254 0 33C0 14.7746 14.7746 0 33 0C51.2254 0 66 14.7746 66 33ZM4.21675 33C4.21675 48.8965 17.1035 61.7832 33 61.7832C48.8965 61.7832 61.7832 48.8965 61.7832 33C61.7832 17.1035 48.8965 4.21675 33 4.21675C17.1035 4.21675 4.21675 17.1035 4.21675 33Z" fill="#F2DCDA"/>
<path d="M33 2.10838C33 0.943952 33.945 -0.00702043 35.107 0.0673077C41.6805 0.487766 47.9959 2.86805 53.2259 6.92489C58.456 10.9817 62.3321 16.5068 64.3741 22.7692C64.735 23.8762 64.049 25.028 62.9211 25.3176C61.7933 25.6071 60.6517 24.9243 60.2803 23.8206C58.478 18.4639 55.1319 13.7399 50.6415 10.2568C46.1511 6.77366 40.7433 4.70749 35.1066 4.29392C33.9453 4.20871 33 3.2728 33 2.10838Z" fill="#D93B2B"/>
<path d="M18.8126 38C18.8126 36.688 19.0313 35.632 19.4686 34.832C19.906 34.0213 20.626 33.3547 21.6286 32.832L23.3726 31.92C24.1726 31.504 24.5726 30.928 24.5726 30.192C24.5726 29.7973 24.45 29.4827 24.2046 29.248C23.97 29.0027 23.6553 28.88 23.2606 28.88C22.7593 28.88 22.37 29.0453 22.0926 29.376C21.826 29.696 21.6926 30.16 21.6926 30.768H19.0526C19.0526 29.5947 19.4313 28.656 20.1886 27.952C20.9566 27.2373 21.9753 26.88 23.2446 26.88C24.4926 26.88 25.4686 27.168 26.1726 27.744C26.8766 28.3093 27.2286 29.0933 27.2286 30.096C27.2286 31.5467 26.5086 32.6507 25.0686 33.408L23.4526 34.272C22.9833 34.528 22.6473 34.768 22.4446 34.992C22.2526 35.216 22.1033 35.5147 21.9966 35.888H27.1326V38H18.8126ZM30.8004 38V31.12H28.4964V29.088C29.531 29.088 30.2297 28.9387 30.5924 28.64C30.955 28.3413 31.1364 27.8347 31.1364 27.12H33.3764V38H30.8004ZM38.2026 38.336L36.9866 37.632L44.5706 26.688L45.7706 27.392L38.2026 38.336ZM40.2666 31.664C39.7333 32.1867 39.024 32.448 38.1386 32.448C37.2533 32.448 36.544 32.1867 36.0106 31.664C35.488 31.1307 35.2266 30.4853 35.2266 29.728C35.2266 28.9707 35.488 28.3307 36.0106 27.808C36.544 27.2747 37.2533 27.008 38.1386 27.008C39.024 27.008 39.7333 27.2747 40.2666 27.808C40.8 28.3307 41.0666 28.9707 41.0666 29.728C41.0666 30.4853 40.8 31.1307 40.2666 31.664ZM37.2426 30.624C37.456 30.8587 37.7546 30.976 38.1386 30.976C38.5226 30.976 38.8213 30.8587 39.0346 30.624C39.248 30.3893 39.3546 30.0907 39.3546 29.728C39.3546 29.3653 39.248 29.0667 39.0346 28.832C38.8213 28.5867 38.5226 28.464 38.1386 28.464C37.7546 28.464 37.456 28.5867 37.2426 28.832C37.0293 29.0667 36.9226 29.3653 36.9226 29.728C36.9226 30.0907 37.0293 30.3893 37.2426 30.624ZM46.7306 37.328C46.1973 37.8507 45.488 38.112 44.6026 38.112C43.7173 38.112 43.008 37.8507 42.4746 37.328C41.952 36.7947 41.6906 36.1493 41.6906 35.392C41.6906 34.6347 41.952 33.9947 42.4746 33.472C43.008 32.9387 43.7173 32.672 44.6026 32.672C45.488 32.672 46.1973 32.9387 46.7306 33.472C47.264 33.9947 47.5306 34.6347 47.5306 35.392C47.5306 36.1493 47.264 36.7947 46.7306 37.328ZM43.7066 36.288C43.92 36.5227 44.2186 36.64 44.6026 36.64C44.9866 36.64 45.2853 36.5227 45.4986 36.288C45.712 36.0533 45.8186 35.7547 45.8186 35.392C45.8186 35.0293 45.712 34.7307 45.4986 34.496C45.2853 34.2507 44.9866 34.128 44.6026 34.128C44.2186 34.128 43.92 34.2507 43.7066 34.496C43.4933 34.7307 43.3866 35.0293 43.3866 35.392C43.3866 35.7547 43.4933 36.0533 43.7066 36.288Z" fill="#3A2E4D"/>
</svg>
