<svg width="66" height="66" viewBox="0 0 66 66" fill="none" xmlns="http://www.w3.org/2000/svg">
<path d="M66 33C66 51.2254 51.2254 66 33 66C14.7746 66 0 51.2254 0 33C0 14.7746 14.7746 0 33 0C51.2254 0 66 14.7746 66 33ZM4.21675 33C4.21675 48.8965 17.1035 61.7832 33 61.7832C48.8965 61.7832 61.7832 48.8965 61.7832 33C61.7832 17.1035 48.8965 4.21675 33 4.21675C17.1035 4.21675 4.21675 17.1035 4.21675 33Z" fill="#E2F2DA"/>
<path d="M33 2.10838C33 0.943952 33.945 -0.00701847 35.107 0.0673153C41.33 0.465384 47.3289 2.62032 52.3969 6.30244C58.0349 10.3987 62.2314 16.1746 64.3849 22.8024C66.5384 29.4303 66.5384 36.5697 64.3849 43.1976C62.2313 49.8254 58.0349 55.6013 52.3969 59.6976C46.7589 63.7938 39.9689 66 33 66C26.0311 66 19.2411 63.7938 13.6031 59.6976C7.96511 55.6013 3.76865 49.8254 1.61513 43.1976C-0.320673 37.2398 -0.516369 30.8685 1.02804 24.8272C1.31644 23.699 2.51289 23.0941 3.62032 23.454C4.72775 23.8138 5.32575 25.002 5.04792 26.1328C3.77242 31.3244 3.96494 36.7838 5.6255 41.8945C7.50384 47.6754 11.1641 52.7133 16.0816 56.2861C20.9992 59.8589 26.9216 61.7832 33 61.7832C39.0784 61.7832 45.0008 59.8589 49.9184 56.2861C54.8359 52.7133 58.4962 47.6754 60.3745 41.8945C62.2528 36.1136 62.2528 29.8864 60.3745 24.1055C58.4962 18.3246 54.8359 13.2867 49.9184 9.71386C45.571 6.55529 40.4382 4.68512 35.1066 4.29392C33.9453 4.20871 33 3.2728 33 2.10838Z" fill="#5C993D"/>
<path d="M24.4777 37.376C23.7097 37.952 22.675 38.24 21.3737 38.24C20.0724 38.24 19.0324 37.952 18.2537 37.376C17.4857 36.8 17.1017 36.0053 17.1017 34.992C17.1017 34.3413 17.2564 33.7867 17.5657 33.328C17.875 32.8693 18.3177 32.5493 18.8937 32.368C18.4137 32.1867 18.0297 31.872 17.7417 31.424C17.4537 30.9653 17.3097 30.448 17.3097 29.872C17.3097 28.9547 17.6777 28.2293 18.4137 27.696C19.1604 27.152 20.147 26.88 21.3737 26.88C22.5897 26.88 23.571 27.152 24.3177 27.696C25.0644 28.2293 25.4377 28.9547 25.4377 29.872C25.4377 30.448 25.2884 30.9653 24.9897 31.424C24.691 31.872 24.3017 32.1867 23.8217 32.368C24.3977 32.5493 24.8457 32.8693 25.1657 33.328C25.4857 33.7867 25.6457 34.3413 25.6457 34.992C25.6457 35.9947 25.2564 36.7893 24.4777 37.376ZM21.3737 31.456C21.8644 31.456 22.2537 31.3333 22.5417 31.088C22.8297 30.832 22.9737 30.5013 22.9737 30.096C22.9737 29.6693 22.8244 29.3333 22.5257 29.088C22.2377 28.8427 21.8537 28.72 21.3737 28.72C20.883 28.72 20.4937 28.8427 20.2057 29.088C19.9177 29.3333 19.7737 29.6693 19.7737 30.096C19.7737 30.5013 19.923 30.832 20.2217 31.088C20.5204 31.3333 20.9044 31.456 21.3737 31.456ZM20.1097 35.92C20.4297 36.1867 20.851 36.32 21.3737 36.32C21.8964 36.32 22.3177 36.1867 22.6377 35.92C22.9577 35.6427 23.1177 35.2747 23.1177 34.816C23.1177 34.368 22.9577 34.0107 22.6377 33.744C22.3177 33.4667 21.8964 33.328 21.3737 33.328C20.8617 33.328 20.4404 33.4667 20.1097 33.744C19.7897 34.0107 19.6297 34.368 19.6297 34.816C19.6297 35.2747 19.7897 35.6427 20.1097 35.92ZM34.8327 36.784C34.0647 37.7547 32.9394 38.24 31.4567 38.24C29.974 38.24 28.8434 37.7547 28.0647 36.784C27.2967 35.8133 26.9127 34.4053 26.9127 32.56C26.9127 30.7147 27.2967 29.3067 28.0647 28.336C28.8434 27.3653 29.974 26.88 31.4567 26.88C32.9394 26.88 34.0647 27.3653 34.8327 28.336C35.6114 29.3067 36.0007 30.7147 36.0007 32.56C36.0007 34.4053 35.6114 35.8133 34.8327 36.784ZM31.4567 36.16C32.8434 36.16 33.5367 34.96 33.5367 32.56C33.5367 30.16 32.8434 28.96 31.4567 28.96C30.07 28.96 29.3767 30.16 29.3767 32.56C29.3767 33.7867 29.5474 34.6933 29.8887 35.28C30.23 35.8667 30.7527 36.16 31.4567 36.16ZM39.9136 38.336L38.6976 37.632L46.2816 26.688L47.4816 27.392L39.9136 38.336ZM41.9776 31.664C41.4442 32.1867 40.7349 32.448 39.8496 32.448C38.9642 32.448 38.2549 32.1867 37.7216 31.664C37.1989 31.1307 36.9376 30.4853 36.9376 29.728C36.9376 28.9707 37.1989 28.3307 37.7216 27.808C38.2549 27.2747 38.9642 27.008 39.8496 27.008C40.7349 27.008 41.4442 27.2747 41.9776 27.808C42.5109 28.3307 42.7776 28.9707 42.7776 29.728C42.7776 30.4853 42.5109 31.1307 41.9776 31.664ZM38.9536 30.624C39.1669 30.8587 39.4656 30.976 39.8496 30.976C40.2336 30.976 40.5322 30.8587 40.7456 30.624C40.9589 30.3893 41.0656 30.0907 41.0656 29.728C41.0656 29.3653 40.9589 29.0667 40.7456 28.832C40.5322 28.5867 40.2336 28.464 39.8496 28.464C39.4656 28.464 39.1669 28.5867 38.9536 28.832C38.7402 29.0667 38.6336 29.3653 38.6336 29.728C38.6336 30.0907 38.7402 30.3893 38.9536 30.624ZM48.4416 37.328C47.9082 37.8507 47.1989 38.112 46.3136 38.112C45.4282 38.112 44.7189 37.8507 44.1856 37.328C43.6629 36.7947 43.4016 36.1493 43.4016 35.392C43.4016 34.6347 43.6629 33.9947 44.1856 33.472C44.7189 32.9387 45.4282 32.672 46.3136 32.672C47.1989 32.672 47.9082 32.9387 48.4416 33.472C48.9749 33.9947 49.2416 34.6347 49.2416 35.392C49.2416 36.1493 48.9749 36.7947 48.4416 37.328ZM45.4176 36.288C45.6309 36.5227 45.9296 36.64 46.3136 36.64C46.6976 36.64 46.9962 36.5227 47.2096 36.288C47.4229 36.0533 47.5296 35.7547 47.5296 35.392C47.5296 35.0293 47.4229 34.7307 47.2096 34.496C46.9962 34.2507 46.6976 34.128 46.3136 34.128C45.9296 34.128 45.6309 34.2507 45.4176 34.496C45.2042 34.7307 45.0976 35.0293 45.0976 35.392C45.0976 35.7547 45.2042 36.0533 45.4176 36.288Z" fill="#3A2E4D"/>
</svg>
