<svg width="48" height="48" viewBox="0 0 48 48" fill="none" xmlns="http://www.w3.org/2000/svg">
<rect width="48" height="48" rx="20" fill="#4C11AB"/>
<path d="M33.9989 24.86C33.9989 27.15 32.8189 29.18 30.9989 30.46L29.6589 33.41C29.3489 34.08 28.4489 34.21 27.9789 33.64L26.4989 31.86C24.6389 31.86 22.9289 31.23 21.6289 30.18L22.2289 29.47C26.8489 29.12 30.4989 25.46 30.4989 21C30.4989 20.24 30.3889 19.49 30.1889 18.77C32.4589 19.97 33.9989 22.25 33.9989 24.86Z" fill="white"/>
<path d="M28.3 18.07C27.13 15.67 24.52 14 21.5 14C17.36 14 14 17.13 14 21C14 23.29 15.18 25.32 17 26.6L18.34 29.55C18.65 30.22 19.55 30.34 20.02 29.78L20.57 29.12L21.5 28C25.64 28 29 24.87 29 21C29 19.95 28.75 18.96 28.3 18.07ZM24 21.75H19C18.59 21.75 18.25 21.41 18.25 21C18.25 20.59 18.59 20.25 19 20.25H24C24.41 20.25 24.75 20.59 24.75 21C24.75 21.41 24.41 21.75 24 21.75Z" fill="white"/>
</svg>
