<svg width="33" height="32" viewBox="0 0 33 32" fill="none" xmlns="http://www.w3.org/2000/svg">
<path opacity="0.4" d="M22.9002 2.66675H8.78018C5.68684 2.66675 3.18018 5.17341 3.18018 8.25342V16.7467C3.18018 19.8401 5.68684 22.3334 8.76684 22.3334H13.5668C14.3002 22.3334 14.9002 22.9334 14.9002 23.6667V24.7601C14.9002 25.4934 14.3002 26.0934 13.5668 26.0934H10.5668C10.0468 26.0934 9.62018 26.5201 9.62018 27.0401C9.62018 27.5601 10.0468 27.9867 10.5668 27.9867H21.1402C21.6602 27.9867 22.0868 27.5601 22.0868 27.0401C22.0868 26.5201 21.6602 26.0934 21.1402 26.0934H18.1402C17.4068 26.0934 16.8068 25.4934 16.8068 24.7601V23.6667C16.8068 22.9334 17.4068 22.3334 18.1402 22.3334H22.9002C25.9935 22.3334 28.4868 19.8267 28.4868 16.7467V8.25342C28.4868 5.17341 25.9802 2.66675 22.9002 2.66675Z" fill="#4C11AB"/>
<path d="M26.6868 12.6667H19.6335C17.3268 12.6667 16.4868 13.5067 16.4868 15.8401V26.1467C16.4868 28.4934 17.3135 29.3201 19.6335 29.3201H26.6868C28.9935 29.3201 29.8335 28.4801 29.8335 26.1467V15.8401C29.8335 13.4934 29.0068 12.6667 26.6868 12.6667ZM23.1668 27.0934C22.3535 27.0934 21.7001 26.4401 21.7001 25.6267C21.7001 24.8134 22.3535 24.1601 23.1668 24.1601C23.9802 24.1601 24.6335 24.8134 24.6335 25.6267C24.6335 26.4401 23.9802 27.0934 23.1668 27.0934Z" fill="#4C11AB"/>
<path opacity="0.4" d="M24.6335 25.628C24.6335 26.4414 23.9802 27.0947 23.1669 27.0947C22.3535 27.0947 21.7002 26.4414 21.7002 25.628C21.7002 24.8147 22.3535 24.1614 23.1669 24.1614C23.9802 24.1614 24.6335 24.828 24.6335 25.628Z" fill="#4C11AB"/>
</svg>
