<svg width="32" height="32" viewBox="0 0 32 32" fill="none" xmlns="http://www.w3.org/2000/svg">
<path opacity="0.4" d="M27.3333 13.5866H23.4799C20.3199 13.5866 17.7466 11.0133 17.7466 7.85329V3.99996C17.7466 3.26663 17.1466 2.66663 16.4133 2.66663H10.7599C6.65325 2.66663 3.33325 5.33329 3.33325 10.0933V21.9066C3.33325 26.6666 6.65325 29.3333 10.7599 29.3333H21.2399C25.3466 29.3333 28.6666 26.6666 28.6666 21.9066V14.92C28.6666 14.1866 28.0666 13.5866 27.3333 13.5866Z" fill="#4C11AB"/>
<path d="M21.0667 2.9467C20.5201 2.40003 19.5734 2.77336 19.5734 3.53336V8.1867C19.5734 10.1334 21.2267 11.7467 23.2401 11.7467C24.5067 11.76 26.2667 11.76 27.7734 11.76C28.5334 11.76 28.9334 10.8667 28.4001 10.3334C26.4801 8.40003 23.0401 4.92003 21.0667 2.9467ZM19.6801 25.6827C16.5467 25.9094 16.5467 30.4427 19.6801 30.6694H27.0934C27.9867 30.6694 28.8667 30.336 29.5201 29.736C31.7201 27.816 30.5467 23.976 27.6534 23.616C26.6134 17.3627 17.5734 19.736 19.7067 25.696" fill="#4C11AB"/>
</svg>
