<svg width="33" height="32" viewBox="0 0 33 32" fill="none" xmlns="http://www.w3.org/2000/svg">
<path opacity="0.4" d="M27.8335 13.5866H23.9802C20.8202 13.5866 18.2468 11.0133 18.2468 7.85329V3.99996C18.2468 3.26663 17.6468 2.66663 16.9135 2.66663H11.2602C7.1535 2.66663 3.8335 5.33329 3.8335 10.0933V21.9066C3.8335 26.6666 7.1535 29.3333 11.2602 29.3333H21.7402C25.8468 29.3333 29.1668 26.6666 29.1668 21.9066V14.92C29.1668 14.1866 28.5668 13.5866 27.8335 13.5866Z" fill="#4C11AB"/>
<path d="M21.5667 2.9467C21.0201 2.40003 20.0734 2.77336 20.0734 3.53336V8.1867C20.0734 10.1334 21.7267 11.7467 23.7401 11.7467C25.0067 11.76 26.7667 11.76 28.2734 11.76C29.0334 11.76 29.4334 10.8667 28.9001 10.3334C26.9801 8.40003 23.5401 4.92003 21.5667 2.9467ZM20.1801 25.6827C17.0467 25.9094 17.0467 30.4427 20.1801 30.6694H27.5934C28.4867 30.6694 29.3667 30.336 30.0201 29.736C32.2201 27.816 31.0467 23.976 28.1534 23.616C27.1134 17.3627 18.0734 19.736 20.2067 25.696" fill="#4C11AB"/>
</svg>
