<svg width="33" height="32" viewBox="0 0 33 32" fill="none" xmlns="http://www.w3.org/2000/svg">
<path opacity="0.4" d="M15.1665 21.5334V25.1334C15.1665 28.1334 13.9665 29.3334 10.9665 29.3334H7.3665C4.3665 29.3334 3.1665 28.1334 3.1665 25.1334V21.5334C3.1665 18.5334 4.3665 17.3334 7.3665 17.3334H10.9665C13.9665 17.3334 15.1665 18.5334 15.1665 21.5334ZM23.8332 14.6667C24.6211 14.6667 25.4013 14.5116 26.1293 14.21C26.8572 13.9085 27.5187 13.4665 28.0758 12.9094C28.633 12.3522 29.0749 11.6908 29.3764 10.9628C29.678 10.2349 29.8332 9.45468 29.8332 8.66675C29.8332 7.87882 29.678 7.0986 29.3764 6.37065C29.0749 5.64269 28.633 4.98126 28.0758 4.42411C27.5187 3.86696 26.8572 3.425 26.1293 3.12347C25.4013 2.82194 24.6211 2.66675 23.8332 2.66675C22.2419 2.66675 20.7157 3.29889 19.5905 4.42411C18.4653 5.54933 17.8332 7.07545 17.8332 8.66675C17.8332 10.258 18.4653 11.7842 19.5905 12.9094C20.7157 14.0346 22.2419 14.6667 23.8332 14.6667Z" fill="#4C11AB"/>
<path d="M20.2065 29.3334C20.0294 29.3324 19.8557 29.2846 19.7031 29.1947C19.5505 29.1048 19.4245 28.976 19.3378 28.8216C19.251 28.6672 19.2068 28.4925 19.2095 28.3154C19.2122 28.1383 19.2618 27.9651 19.3532 27.8134L20.6465 25.6534C20.9265 25.1734 21.5398 25.0267 22.0198 25.3067C22.4998 25.5867 22.6465 26.2001 22.3665 26.6801L22.1265 27.0801C23.7631 26.6556 25.2125 25.7001 26.2477 24.3634C27.2828 23.0266 27.8452 21.3841 27.8465 19.6934C27.8465 19.1467 28.2998 18.6934 28.8465 18.6934C29.3932 18.6934 29.8332 19.1467 29.8332 19.7067C29.8332 25.0134 25.5132 29.3334 20.2065 29.3334ZM4.1665 13.2934C3.61984 13.2934 3.1665 12.8534 3.1665 12.2934C3.1665 6.98675 7.4865 2.66675 12.7932 2.66675C13.1665 2.66675 13.4865 2.86675 13.6732 3.17341C13.8465 3.49341 13.8465 3.86675 13.6598 4.18675L12.3665 6.33341C12.0732 6.81342 11.4598 6.97342 10.9932 6.68008C10.8799 6.61294 10.7811 6.52408 10.7024 6.41861C10.6236 6.31314 10.5665 6.19314 10.5342 6.06551C10.502 5.93788 10.4954 5.80514 10.5146 5.67492C10.5339 5.5447 10.5787 5.41958 10.6465 5.30675L10.8865 4.90675C7.6065 5.76008 5.1665 8.74675 5.1665 12.2934C5.1665 12.8534 4.71317 13.2934 4.1665 13.2934Z" fill="#4C11AB"/>
</svg>
