<svg width="33" height="32" viewBox="0 0 33 32" fill="none" xmlns="http://www.w3.org/2000/svg">
<path opacity="0.4" d="M28.5 9.33342V22.6667C28.5 26.6667 26.5 29.3334 21.8333 29.3334H11.1667C6.5 29.3334 4.5 26.6667 4.5 22.6667V9.33342C4.5 5.33341 6.5 2.66675 11.1667 2.66675H21.8333C26.5 2.66675 28.5 5.33341 28.5 9.33342Z" fill="#4C11AB"/>
<path d="M25.1665 12.3333H22.4998C20.4732 12.3333 18.8332 10.6933 18.8332 8.66667V6C18.8332 5.45333 19.2865 5 19.8332 5C20.3798 5 20.8332 5.45333 20.8332 6V8.66667C20.8332 9.58667 21.5798 10.3333 22.4998 10.3333H25.1665C25.7132 10.3333 26.1665 10.7867 26.1665 11.3333C26.1665 11.88 25.7132 12.3333 25.1665 12.3333ZM16.4998 18.3333H11.1665C10.6198 18.3333 10.1665 17.88 10.1665 17.3333C10.1665 16.7867 10.6198 16.3333 11.1665 16.3333H16.4998C17.0465 16.3333 17.4998 16.7867 17.4998 17.3333C17.4998 17.88 17.0465 18.3333 16.4998 18.3333ZM21.8332 23.6667H11.1665C10.6198 23.6667 10.1665 23.2133 10.1665 22.6667C10.1665 22.12 10.6198 21.6667 11.1665 21.6667H21.8332C22.3798 21.6667 22.8332 22.12 22.8332 22.6667C22.8332 23.2133 22.3798 23.6667 21.8332 23.6667Z" fill="#4C11AB"/>
</svg>
