<svg width="33" height="32" viewBox="0 0 33 32" fill="none" xmlns="http://www.w3.org/2000/svg">
<path d="M20.4998 30.3306C20.3227 30.3296 20.149 30.2818 19.9964 30.1919C19.8438 30.102 19.7178 29.9733 19.6311 29.8188C19.5444 29.6644 19.5001 29.4897 19.5028 29.3126C19.5056 29.1356 19.5551 28.9623 19.6465 28.8106L21.0465 26.4773C21.1139 26.3644 21.2029 26.2658 21.3084 26.1873C21.4139 26.1087 21.5338 26.0517 21.6614 26.0195C21.7889 25.9873 21.9215 25.9806 22.0517 25.9996C22.1818 26.0187 22.3069 26.0632 22.4198 26.1306C22.5328 26.198 22.6313 26.287 22.7099 26.3925C22.7884 26.498 22.8454 26.618 22.8776 26.7455C22.9098 26.873 22.9165 27.0056 22.8975 27.1358C22.8784 27.2659 22.8339 27.391 22.7665 27.504L22.4065 28.104C26.0865 27.2373 28.8465 23.9306 28.8465 19.984C28.8465 19.4373 29.2998 18.984 29.8465 18.984C30.3932 18.984 30.8465 19.4373 30.8465 19.984C30.8332 25.6906 26.1932 30.3306 20.4998 30.3306ZM3.1665 13C2.61984 13 2.1665 12.5466 2.1665 12C2.1665 6.30663 6.8065 1.66663 12.4998 1.66663C12.6769 1.66761 12.8506 1.71548 13.0032 1.80538C13.1558 1.89528 13.2819 2.024 13.3686 2.17844C13.4553 2.33287 13.4995 2.50752 13.4968 2.68461C13.4941 2.8617 13.4446 3.03491 13.3532 3.18663L11.9532 5.51996C11.6732 5.98663 11.0598 6.14663 10.5798 5.85329C10.4673 5.78544 10.3693 5.69596 10.2916 5.59003C10.2139 5.4841 10.1579 5.36381 10.1269 5.23612C10.0959 5.10842 10.0905 4.97585 10.111 4.84607C10.1316 4.71628 10.1776 4.59185 10.2465 4.47996L10.6065 3.87996C8.77519 4.3099 7.14277 5.34575 5.97386 6.81959C4.80496 8.29343 4.16809 10.1189 4.1665 12C4.1665 12.5466 3.71317 13 3.1665 13Z" fill="#4C11AB"/>
<path opacity="0.4" d="M20.2332 16.8401V20.7601C20.2332 24.0267 18.9265 25.3334 15.6598 25.3334H11.7398C8.47317 25.3334 7.1665 24.0267 7.1665 20.7601V16.8401C7.1665 13.5734 8.47317 12.2667 11.7398 12.2667H15.6598C18.9265 12.2667 20.2332 13.5734 20.2332 16.8401Z" fill="#4C11AB"/>
<path opacity="0.4" d="M21.2598 6.66663H17.3398C14.1265 6.66663 12.8198 7.94663 12.7798 11.0933H15.6598C19.5798 11.0933 21.3931 12.92 21.3931 16.8266V19.7066C24.5531 19.6666 25.8198 18.36 25.8198 15.1466V11.24C25.8331 7.97329 24.5265 6.66663 21.2598 6.66663Z" fill="#4C11AB"/>
</svg>
