<svg width="33" height="32" viewBox="0 0 33 32" fill="none" xmlns="http://www.w3.org/2000/svg">
<path opacity="0.4" d="M4.19317 13.3334C3.61984 13.3334 3.1665 12.8801 3.1665 12.3067V9.22675C3.17003 7.48801 3.8623 5.8215 5.09178 4.59202C6.32125 3.36254 7.98777 2.67027 9.7265 2.66675H12.8065C13.3798 2.66675 13.8332 3.12008 13.8332 3.69341C13.8332 4.26675 13.3798 4.72008 12.8065 4.72008H9.7265C7.23317 4.72008 5.21984 6.74675 5.21984 9.22675V12.3067C5.21984 12.8801 4.75317 13.3334 4.19317 13.3334ZM28.8065 13.3334C28.5342 13.3334 28.2731 13.2252 28.0805 13.0327C27.888 12.8402 27.7798 12.579 27.7798 12.3067V9.22675C27.7798 6.73342 25.7532 4.72008 23.2732 4.72008H20.1932C19.9209 4.72008 19.6597 4.61191 19.4672 4.41938C19.2747 4.22684 19.1665 3.9657 19.1665 3.69341C19.1665 3.42113 19.2747 3.15999 19.4672 2.96745C19.6597 2.77491 19.9209 2.66675 20.1932 2.66675H23.2732C25.0119 2.67027 26.6784 3.36254 27.9079 4.59202C29.1374 5.8215 29.8296 7.48801 29.8332 9.22675V12.3067C29.8332 12.8801 29.3798 13.3334 28.8065 13.3334Z" fill="#4C11AB"/>
<path d="M23.2758 29.3334H21.4225C21.1502 29.3334 20.8891 29.2252 20.6965 29.0327C20.504 28.8401 20.3958 28.579 20.3958 28.3067C20.3958 28.0344 20.504 27.7733 20.6965 27.5808C20.8891 27.3882 21.1502 27.2801 21.4225 27.2801H23.2758C25.7692 27.2801 27.7825 25.2534 27.7825 22.7734V20.9334C27.7825 20.6611 27.8907 20.4 28.0832 20.2074C28.2757 20.0149 28.5369 19.9067 28.8092 19.9067C29.0815 19.9067 29.3426 20.0149 29.5351 20.2074C29.7277 20.4 29.8358 20.6611 29.8358 20.9334V22.7734C29.8323 24.5121 29.14 26.1786 27.9106 27.4081C26.6811 28.6376 25.0146 29.3299 23.2758 29.3334ZM12.8065 29.3334H9.7265C7.98777 29.3299 6.32125 28.6376 5.09178 27.4081C3.8623 26.1786 3.17003 24.5121 3.1665 22.7734V19.6934C3.1665 19.1201 3.61984 18.6667 4.19317 18.6667C4.7665 18.6667 5.21984 19.1201 5.21984 19.6934V22.7734C5.21984 25.2667 7.2465 27.2801 9.7265 27.2801H12.8065C13.0788 27.2801 13.3399 27.3882 13.5325 27.5808C13.725 27.7733 13.8332 28.0344 13.8332 28.3067C13.8332 28.579 13.725 28.8401 13.5325 29.0327C13.3399 29.2252 13.0788 29.3334 12.8065 29.3334ZM25.1132 14.9734H7.8865C7.61421 14.9734 7.35308 15.0816 7.16054 15.2741C6.968 15.4666 6.85984 15.7278 6.85984 16.0001C6.85984 16.2723 6.968 16.5335 7.16054 16.726C7.35308 16.9186 7.61421 17.0267 7.8865 17.0267H25.1132C25.3855 17.0267 25.6466 16.9186 25.8391 16.726C26.0317 16.5335 26.1398 16.2723 26.1398 16.0001C26.1398 15.7278 26.0317 15.4666 25.8391 15.2741C25.6466 15.0816 25.3855 14.9734 25.1132 14.9734ZM9.69717 18.5867V19.0267C9.69717 21.2401 11.4838 23.0267 13.6972 23.0267H19.2972C21.5105 23.0267 23.2972 21.2401 23.2972 19.0267V18.5867C23.2972 18.4267 23.1772 18.3067 23.0172 18.3067H9.97717C9.81717 18.3067 9.69717 18.4267 9.69717 18.5867Z" fill="#4C11AB"/>
<path opacity="0.4" d="M9.69727 13.4134V12.9734C9.69727 10.7601 11.4839 8.97339 13.6973 8.97339H19.2973C21.5106 8.97339 23.2973 10.7601 23.2973 12.9734V13.4134C23.2973 13.5734 23.1773 13.6934 23.0173 13.6934H9.97727C9.81727 13.6934 9.69727 13.5734 9.69727 13.4134Z" fill="#4C11AB"/>
</svg>
