<svg width="24" height="24" viewBox="0 0 24 24" fill="none" xmlns="http://www.w3.org/2000/svg">
<path opacity="0.4" d="M22 7.81V15.16C21.71 15.02 21.39 14.92 21.03 14.86L20.72 14.81L20.46 14.27C19.91 13.15 19.01 12.5 18 12.5C16.99 12.5 16.09 13.15 15.54 14.27L15.27 14.81L14.97 14.86C13.78 15.06 12.92 15.72 12.61 16.66C12.31 17.61 12.62 18.65 13.47 19.51L13.78 19.82L13.75 19.94C13.55 20.83 13.63 21.51 13.82 22H7.81C4.17 22 2 19.83 2 16.19V7.81C2 4.17 4.17 2 7.81 2H16.19C19.83 2 22 4.17 22 7.81Z" fill="#4C11AB"/>
<path d="M19.1199 14.941L19.4399 15.591C19.5999 15.911 20.0099 16.211 20.3499 16.271L20.7799 16.341C22.0899 16.561 22.3899 17.521 21.4599 18.461L21.0599 18.861C20.7899 19.131 20.6499 19.651 20.7299 20.031L20.7799 20.271C21.1399 21.851 20.2999 22.461 18.9299 21.631L18.6399 21.451C18.2899 21.241 17.7099 21.241 17.3599 21.451L17.0699 21.631C15.6899 22.461 14.8599 21.851 15.2199 20.271L15.2699 20.031C15.3499 19.661 15.2099 19.131 14.9399 18.861L14.5399 18.461C13.6099 17.511 13.9099 16.561 15.2199 16.341L15.6499 16.271C15.9999 16.211 16.3999 15.911 16.5599 15.591L16.8799 14.941C17.4999 13.691 18.4999 13.691 19.1199 14.941Z" fill="#4C11AB"/>
<path fill-rule="evenodd" clip-rule="evenodd" d="M16.1299 7.91899C16.287 8.04089 16.3893 8.22019 16.4142 8.41746C16.4391 8.61473 16.3847 8.81383 16.2629 8.97099L13.9479 11.957C13.6598 12.3194 13.2406 12.5538 12.781 12.6095C12.3214 12.6653 11.8583 12.5379 11.4919 12.255L11.4859 12.251L9.6599 10.814C9.60658 10.7729 9.53913 10.7547 9.47239 10.7633C9.40564 10.772 9.34504 10.8067 9.3039 10.86L6.9239 13.95C6.80243 14.1075 6.62336 14.2104 6.42607 14.2359C6.22878 14.2614 6.02944 14.2075 5.8719 14.086C5.71437 13.9645 5.61153 13.7854 5.58603 13.5882C5.56052 13.3909 5.61443 13.1915 5.7359 13.034L8.1159 9.94399C8.25672 9.76131 8.43219 9.60821 8.63226 9.49343C8.83233 9.37865 9.05308 9.30447 9.28186 9.27512C9.51064 9.24576 9.74296 9.26182 9.96553 9.32237C10.1881 9.38293 10.3965 9.48678 10.5789 9.62799L10.5839 9.63199L12.4109 11.07C12.4648 11.1107 12.5323 11.1291 12.5993 11.1213C12.6664 11.1135 12.7279 11.08 12.7709 11.028L15.0769 8.05199C15.1373 7.97406 15.2124 7.9088 15.298 7.85993C15.3836 7.81107 15.478 7.77956 15.5758 7.7672C15.6736 7.75485 15.7729 7.7619 15.868 7.78794C15.963 7.81399 16.0521 7.85852 16.1299 7.91899Z" fill="#4C11AB"/>
</svg>
