<svg width="33" height="32" viewBox="0 0 33 32" fill="none" xmlns="http://www.w3.org/2000/svg">
<g clip-path="url(#clip0_900_3300)">
<path opacity="0.4" d="M19.42 1.29199H8.24667C3.39333 1.29199 0.5 4.18533 0.5 9.03866V20.212C0.5 25.0653 3.39333 27.9587 8.24667 27.9587H19.42C24.2733 27.9587 27.1667 25.0653 27.1667 20.212V9.03866C27.1667 4.18533 24.2733 1.29199 19.42 1.29199Z" fill="#4C11AB"/>
<path d="M22.2469 10.4533C22.2469 11 21.8069 11.4533 21.2469 11.4533H14.2469C13.7002 11.4533 13.2469 11 13.2469 10.4533C13.2469 9.90664 13.7002 9.4533 14.2469 9.4533H21.2469C21.8069 9.4533 22.2469 9.90664 22.2469 10.4533ZM11.1269 9.15597L8.12691 12.156C7.92691 12.356 7.67357 12.4493 7.42024 12.4493C7.16691 12.4493 6.90024 12.356 6.71357 12.156L5.71357 11.156C5.31357 10.7693 5.31357 10.1293 5.71357 9.74264C6.10024 9.35597 6.72691 9.35597 7.12691 9.74264L7.42024 10.036L9.71357 7.74264C10.1002 7.35597 10.7269 7.35597 11.1269 7.74264C11.5136 8.1293 11.5136 8.7693 11.1269 9.15597ZM22.2469 19.7866C22.2469 20.3333 21.8069 20.7866 21.2469 20.7866H14.2469C13.7002 20.7866 13.2469 20.3333 13.2469 19.7866C13.2469 19.24 13.7002 18.7866 14.2469 18.7866H21.2469C21.8069 18.7866 22.2469 19.24 22.2469 19.7866ZM11.1269 18.4893L8.12691 21.4893C7.92691 21.6893 7.67357 21.7826 7.42024 21.7826C7.16691 21.7826 6.90024 21.6893 6.71357 21.4893L5.71357 20.4893C5.31357 20.1026 5.31357 19.4626 5.71357 19.076C6.10024 18.6893 6.72691 18.6893 7.12691 19.076L7.42024 19.3693L9.71357 17.076C10.1002 16.6893 10.7269 16.6893 11.1269 17.076C11.5136 17.4626 11.5136 18.1026 11.1269 18.4893Z" fill="#4C11AB"/>
</g>
<defs>
<clipPath id="clip0_900_3300">
<rect width="32" height="32" fill="white" transform="translate(0.5)"/>
</clipPath>
</defs>
</svg>
