<svg width="33" height="32" viewBox="0 0 33 32" fill="none" xmlns="http://www.w3.org/2000/svg">
<path opacity="0.4" d="M21.1665 17.5333H18.2732C15.8998 17.5333 13.9665 15.6133 13.9665 13.2266V10.3333C13.9665 9.78659 13.5265 9.33325 12.9665 9.33325H8.73984C5.65984 9.33325 3.1665 11.3333 3.1665 14.9066V23.7599C3.1665 27.3333 5.65984 29.3333 8.73984 29.3333H16.5932C19.6732 29.3333 22.1665 27.3333 22.1665 23.7599V18.5333C22.1665 17.9733 21.7132 17.5333 21.1665 17.5333Z" fill="#4C11AB"/>
<path d="M24.26 2.66675H16.4067C13.3933 2.66675 10.9533 4.58675 10.8467 8.01342C10.9267 8.01342 10.9933 8.00008 11.0733 8.00008H18.9267C22.0067 8.00008 24.5 10.0001 24.5 13.5734V22.4401C24.5 22.5201 24.4867 22.5867 24.4867 22.6534C27.46 22.5601 29.8333 20.5867 29.8333 17.1067V8.24008C29.8333 4.66675 27.34 2.66675 24.26 2.66675Z" fill="#4C11AB"/>
<path d="M16.4735 9.53593C16.0602 9.1226 15.3535 9.4026 15.3535 9.97593V13.4693C15.3535 14.9359 16.5935 16.1359 18.1135 16.1359C19.0602 16.1493 20.3802 16.1493 21.5135 16.1493C22.0868 16.1493 22.3802 15.4826 21.9802 15.0826C20.5268 13.6293 17.9402 11.0293 16.4735 9.53593Z" fill="#4C11AB"/>
</svg>
